<svg width="20" height="34" viewBox="0 0 20 34" fill="none" xmlns="http://www.w3.org/2000/svg">
<path d="M18.6541 32.4238C18.9245 32.1539 19.139 31.8334 19.2854 31.4806C19.4317 31.1278 19.5071 30.7495 19.5071 30.3675C19.5071 29.9855 19.4317 29.6073 19.2854 29.2545C19.139 28.9016 18.9245 28.5811 18.6541 28.3113L7.33746 16.9946L18.6541 5.67795C19.1995 5.13259 19.5058 4.39294 19.5058 3.6217C19.5058 2.85046 19.1995 2.1108 18.6541 1.56544C18.1088 1.02009 17.3691 0.713723 16.5979 0.713723C15.8266 0.713723 15.087 1.02009 14.5416 1.56544L1.15412 14.9529C0.883739 15.2228 0.669225 15.5433 0.522863 15.8961C0.3765 16.249 0.301165 16.6272 0.301165 17.0092C0.301165 17.3912 0.3765 17.7694 0.522863 18.1223C0.669225 18.4751 0.883739 18.7956 1.15412 19.0654L14.5416 32.4529C15.65 33.5613 17.5166 33.5613 18.6541 32.4238Z" fill="#FA4776"/>
</svg>